<svg width="119" height="60" viewBox="0 0 119 60" fill="none" xmlns="http://www.w3.org/2000/svg">
<path d="M9.21862 12.7875C8.48934 10.9403 8.80598 8.81659 9.47768 7.03041C10.1844 5.15087 11.4151 3.27648 13.2545 2.28796C13.3457 4.26864 12.7386 6.22552 12.0753 7.99008C11.4787 9.57723 10.7467 11.2681 9.53799 12.5807C9.35225 13.5753 9.20993 14.5671 9.10983 15.5543C9.51041 14.5114 10.16 13.5607 10.9706 12.7963C12.0141 11.8121 13.5663 11.0526 15.0235 11.5017C14.5967 13.107 13.6239 14.6457 12.4717 15.7251C11.5648 16.5747 10.3678 17.6635 8.9577 17.7063C8.89965 19.1591 8.93245 20.5987 9.05242 22.0187C9.25134 20.9795 9.67757 20.001 10.2934 19.2723C11.1394 18.2709 12.3937 17.0475 13.9957 17.2523C13.9083 18.8769 13.258 20.5415 12.3524 21.7923C11.6329 22.7863 10.6829 24.0531 9.33448 24.3804C9.55037 25.7757 9.85109 27.1479 10.2327 28.4906C10.2363 27.4625 10.4642 26.4534 10.9162 25.644C11.5533 24.5027 12.5456 23.0794 14.1493 22.9681C14.3844 24.5619 14.0659 26.3043 13.4233 27.6902C12.9097 28.7979 12.2251 30.2104 10.9769 30.7949C11.5011 32.2395 12.1213 33.6437 12.8324 34.9991C12.5827 33.8309 12.5927 32.5999 12.8882 31.4923C13.2953 29.9653 14.306 28.3613 15.9287 27.8959C16.5023 29.5816 16.4232 31.463 16.09 33.1764C15.8157 34.5871 15.2769 36.2441 14.0691 37.1605C14.8587 38.4304 15.7323 39.6492 16.6849 40.8089C16.173 39.6715 15.9187 38.4277 16.0552 37.2889C16.254 35.6299 16.7217 33.8551 18.4221 32.9706C19.3868 34.6294 19.6103 36.4903 19.6922 38.3283C19.7585 39.8142 19.5437 41.6469 18.5083 42.8558C19.6473 44.036 20.8763 45.1407 22.1891 46.1592C21.3416 45.0758 20.7481 43.8043 20.6224 42.547C20.4449 40.7706 20.5317 38.8149 22.1136 37.5113C23.4665 38.9195 24.2738 40.9934 24.6695 42.7947C25.0194 44.3873 25.3846 46.2723 24.5516 47.8397C26.2223 48.9265 28.0057 49.884 29.8913 50.6948C28.5645 49.7526 27.4784 48.4597 26.9609 47.125C26.2828 45.3752 25.8634 43.2903 27.1843 41.538C28.954 42.6677 30.2547 44.5951 31.2794 46.3529C32.1587 47.8612 33.0688 49.943 32.6172 51.7394C33.6612 52.0924 34.7322 52.4024 35.8288 52.6669L35.7636 52.9352C34.6629 52.6697 33.5877 52.3587 32.5395 52.0046C31.8051 54.1675 29.3992 54.882 27.4536 55.1975C24.6813 55.647 21.3803 54.776 19.0136 53.0217C20.2628 51.2623 22.8114 51.0839 24.7332 50.9492L24.7582 50.9475C26.8636 50.8001 29.1407 50.9971 31.2578 51.5452C28.812 50.6174 26.5235 49.4507 24.4131 48.0792L24.382 48.1282C23.2257 49.9969 20.9039 50.0698 19.0815 49.9516C16.6087 49.7912 13.7536 48.2927 12.1013 46.2213C13.6555 44.8623 15.9512 45.2427 17.7299 45.5374L17.7385 45.5387C19.7238 45.8676 21.8932 46.5851 23.7142 47.6899C23.5408 47.5537 23.371 47.4097 23.206 47.2587C21.4356 46.0007 19.8024 44.5935 18.3203 43.0591C18.3031 43.0763 18.2856 43.0934 18.2681 43.1103C16.8271 44.5551 14.7282 44.1767 13.0903 43.7066C10.8984 43.0774 8.62531 41.1791 7.53594 39C9.224 38.0574 11.2423 38.8342 12.8121 39.4486C14.535 40.123 16.358 41.2017 17.7597 42.5769C17.6152 42.3952 17.4773 42.2055 17.347 42.009C16.0442 40.5436 14.8722 38.9744 13.8418 37.319L13.7901 37.3512C12.1599 38.3997 10.3129 37.6404 8.84899 36.8938C6.8642 35.8815 5.26921 33.6567 4.58002 31.4687C6.34076 30.9067 8.0804 32.0098 9.43274 32.8835C10.9118 33.8389 12.41 35.2016 13.4384 36.7643C13.3628 36.6104 13.2924 36.453 13.2276 36.2926C12.2395 34.5746 11.4001 32.771 10.7205 30.9L10.6855 30.9119L10.6826 30.913C9.20036 31.4745 7.54971 30.6015 6.47358 29.6439C4.97787 28.3133 3.92365 26.2675 3.67652 24.2689C5.22192 24.0694 6.67789 25.2609 7.67335 26.2772C8.81916 27.447 9.84755 28.8295 10.4798 30.365C10.4337 30.1982 10.3941 30.0287 10.3608 29.8576C9.78547 28.0995 9.3496 26.2863 9.06231 24.4326L9.03988 24.4353L9.03232 24.4366C7.46523 24.6973 6.01637 23.5099 5.15075 22.3576C3.93629 20.7407 3.31023 18.5027 3.46715 16.4743C5.02815 16.5831 6.21679 18.0631 6.98759 19.2603C7.87973 20.6462 8.61952 22.2147 8.94363 23.8555C8.93374 23.7251 8.92787 23.5937 8.92578 23.462C8.68786 21.5754 8.60303 19.6501 8.68062 17.701L8.67612 17.7008C7.08287 17.6436 5.90537 16.1694 5.29745 14.8617C4.42758 12.9903 4.28754 10.625 4.86814 8.63155C6.38667 9.05627 7.23325 10.7923 7.73292 12.1285C8.30907 13.6692 8.71118 15.3496 8.71439 17.0203C8.79721 15.6187 8.96413 14.2059 9.21862 12.7875Z" fill="white"/>
<path d="M40.5989 9.32953V16.0215C40.5989 18.9648 37.9241 20.381 33.8702 20.381C30.0808 20.381 27.3643 18.9788 27.3643 15.6744V9.32953H31.1397V15.6744C31.1397 16.8546 32.1566 17.5903 34.0234 17.5903C35.8067 17.5903 36.8654 16.8267 36.8654 15.6882V9.32953H40.5989Z" fill="white"/>
<path d="M53.1728 17.3266V20.2282H42.7383V9.32953H46.5137V17.3266H53.1728Z" fill="white"/>
<path d="M64.3925 12.0646V9.32953H51.3389V12.0646H55.9501V20.2282H59.7674V12.0646H64.3925Z" fill="white"/>
<path fill-rule="evenodd" clip-rule="evenodd" d="M77.7837 10.4403C78.2853 10.9539 78.5229 11.6621 78.5229 12.6477C78.5229 13.4947 78.314 14.2166 77.9651 14.7025C77.5748 15.2301 76.9756 15.6744 76.2375 15.7855L79.54 20.2282H75.3881L72.671 16.3824H69.2861V20.2282H65.5664V9.32953H74.2735C76.001 9.32953 77.1294 9.74601 77.7837 10.4403ZM74.7751 13.5642C74.8727 13.3974 74.9002 13.1753 74.9002 12.9949C74.9002 12.7866 74.8727 12.5644 74.7751 12.4257C74.5799 12.0646 74.1897 11.9675 73.6043 11.9675H69.3V13.9529H73.6742C74.2735 13.9529 74.6362 13.8418 74.7751 13.5642Z" fill="white"/>
<path fill-rule="evenodd" clip-rule="evenodd" d="M84.5657 18.2152H90.4731L91.4339 20.2282H95.4606L89.944 9.32953H85.4437L79.6069 20.2282H83.5486L84.5657 18.2152ZM89.2879 15.7715H85.7919L87.1716 13.1476L87.5897 12.1479L87.9797 13.1337L89.2879 15.7715Z" fill="white"/>
<path fill-rule="evenodd" clip-rule="evenodd" d="M77.3853 22.2809C75.0482 22.2809 73.8188 23.3848 73.8188 25.007C73.8188 26.8378 75.109 27.7666 77.3853 27.7666C79.8911 27.7666 80.9447 26.6897 80.9447 25.007C80.9447 23.2973 79.7557 22.2809 77.3853 22.2809ZM77.3853 26.4138C76.0549 26.4138 75.6692 25.8686 75.6692 25.0272C75.6692 24.1993 76.0882 23.6541 77.3785 23.6541C78.7903 23.6541 79.1072 24.2666 79.1072 25.0272C79.1072 25.835 78.7226 26.4138 77.3853 26.4138Z" fill="white"/>
<path d="M70.3552 27.6859V24.556H66.8296V25.6935H68.714C68.7006 25.7811 68.6329 25.9494 68.5451 26.0503C68.3493 26.2791 67.8292 26.4811 67.1538 26.4811C66.4514 26.4811 65.9989 26.2993 65.7558 26.0167C65.5937 25.8079 65.4991 25.5118 65.4991 25.0676C65.4991 24.6031 65.5937 24.2868 65.776 24.0782C66.0394 23.782 66.4851 23.6541 67.1404 23.6541C67.728 23.6541 68.1331 23.7887 68.3223 23.9569C68.4439 24.0579 68.5384 24.1993 68.5586 24.2935H70.3079C70.3013 24.1252 70.2472 23.856 70.1526 23.6608C69.7338 22.8127 68.7613 22.3079 67.1066 22.3079C65.668 22.3079 64.7021 22.7453 64.1686 23.4051C63.8174 23.856 63.6553 24.4214 63.6553 25.0541C63.6553 25.7542 63.8443 26.3532 64.1551 26.7503C64.6818 27.4303 65.6206 27.7667 66.7485 27.7667C67.7415 27.7667 68.4236 27.5311 68.8559 27.1744L68.9032 27.6859H70.3552Z" fill="white"/>
<path d="M51.9568 24.4887C53.3279 24.6367 53.9155 25.1214 53.9155 26.0436C53.9155 27.1609 52.8213 27.7666 50.6667 27.7666C48.6608 27.7666 47.7963 27.2013 47.4653 26.4609C47.391 26.2859 47.3573 26.0705 47.3369 25.9358H49.2822C49.2957 26.0166 49.343 26.1378 49.4105 26.2185C49.5726 26.4138 50.0251 26.5281 50.7951 26.5281C51.788 26.5281 52.0243 26.3868 52.0243 26.1243C52.0243 25.8416 51.7812 25.781 50.8829 25.6868C50.525 25.6531 49.9576 25.5993 49.7213 25.5791C48.0057 25.4242 47.3708 24.8926 47.3708 23.9838C47.3708 23.0414 48.4919 22.3214 50.5384 22.3214C52.3553 22.3214 53.1995 22.8598 53.5508 23.5329C53.6588 23.7348 53.7263 23.9636 53.7467 24.1251H51.8014C51.7947 24.0511 51.7677 23.9771 51.6934 23.8829C51.5448 23.6877 51.1665 23.5598 50.4911 23.5598C49.5388 23.5598 49.2889 23.6742 49.2889 23.9165C49.2889 24.1858 49.6064 24.2464 50.6667 24.3608C51.0787 24.3945 51.734 24.4617 51.9568 24.4887Z" fill="white"/>
<path fill-rule="evenodd" clip-rule="evenodd" d="M32.5662 22.8531C32.9242 23.1358 33.1267 23.6137 33.1267 24.307C33.1267 24.8724 32.985 25.2963 32.7148 25.5925C32.3501 26.0099 31.7489 26.1984 30.9655 26.2051C30.7223 26.2119 28.642 26.2051 28.642 26.2051V27.6859H26.8252V22.4021H30.9384C31.6679 22.4021 32.2218 22.5502 32.5662 22.8531ZM31.2222 24.7175C31.2761 24.6234 31.3032 24.5021 31.3032 24.3339C31.3032 24.1589 31.2694 24.0107 31.2087 23.93C31.0938 23.7617 30.8777 23.681 30.5264 23.681H28.6285V24.9733H30.5129C30.8911 24.9733 31.114 24.8858 31.2222 24.7175Z" fill="white"/>
<path fill-rule="evenodd" clip-rule="evenodd" d="M39.773 22.9406C40.0162 23.1896 40.131 23.5329 40.131 24.0107C40.131 24.4214 40.0297 24.7714 39.8608 25.007C39.6717 25.2627 39.3813 25.4782 39.0233 25.532L40.624 27.6859H38.6113L37.2942 25.8215H35.6529V27.6859H33.8496V22.4021H38.071C38.9085 22.4021 39.4556 22.604 39.773 22.9406ZM38.3141 24.4551C38.3614 24.3743 38.3748 24.2666 38.3748 24.1791C38.3748 24.0782 38.3614 23.9704 38.3141 23.9031C38.2196 23.7281 38.0304 23.681 37.7469 23.681H35.6598V24.6435H37.7806C38.071 24.6435 38.2466 24.5896 38.3141 24.4551Z" fill="white"/>
<path d="M46.7892 27.6859V26.3734H42.9868V25.6868H46.634V24.4012H42.9868V23.7214H46.7419V22.4021H41.2036V27.6859H46.7892Z" fill="white"/>
<path d="M60.4877 23.7281V22.4021H54.1592V23.7281H56.3947V27.6859H58.2453V23.7281H60.4877Z" fill="white"/>
<path d="M62.9214 22.4021V27.6859H61.064V22.4021H62.9214Z" fill="white"/>
<path d="M73.0858 22.4021V27.6859H71.228V22.4021H73.0858Z" fill="white"/>
<path d="M88.1117 22.4021V25.6464C88.1117 27.0734 86.8147 27.76 84.8496 27.76C83.0124 27.76 81.6953 27.0802 81.6953 25.4782V22.4021H83.5261V25.4782C83.5261 26.0503 84.0182 26.4071 84.9236 26.4071C85.788 26.4071 86.3017 26.0368 86.3017 25.4849V22.4021H88.1117Z" fill="white"/>
<path d="M95.4027 26.0436C95.4027 25.1214 94.8149 24.6367 93.4448 24.4887C93.2213 24.4617 92.5668 24.3945 92.1543 24.3608C91.0937 24.2464 90.7761 24.1858 90.7761 23.9165C90.7761 23.6742 91.0262 23.5598 91.979 23.5598C92.6536 23.5598 93.0323 23.6877 93.1811 23.8829C93.255 23.9771 93.2816 24.0511 93.2888 24.1251H95.2346C95.2137 23.9636 95.1462 23.7348 95.0376 23.5329C94.6871 22.8598 93.8428 22.3214 92.0256 22.3214C89.9793 22.3214 88.8577 23.0414 88.8577 23.9838C88.8577 24.8926 89.4937 25.4242 91.2087 25.5791L91.3189 25.5889L91.5022 25.6056L92.3706 25.6868C93.2687 25.781 93.5115 25.8416 93.5115 26.1243C93.5115 26.3868 93.276 26.5281 92.2829 26.5281C91.5127 26.5281 91.0608 26.4138 90.8976 26.2185C90.8308 26.1378 90.7826 26.0166 90.7705 25.9358H88.8247C88.8448 26.0705 88.8786 26.2859 88.9534 26.4609C89.2838 27.2013 90.1482 27.7666 92.1543 27.7666C94.3092 27.7666 95.4027 27.1609 95.4027 26.0436Z" fill="white"/>
<path fill-rule="evenodd" clip-rule="evenodd" d="M48.1727 29.709C46.6539 29.709 45.855 30.4266 45.855 31.4808C45.855 32.6706 46.6934 33.2743 48.1727 33.2743C49.8013 33.2743 50.486 32.5745 50.486 31.4808C50.486 30.3697 49.7135 29.709 48.1727 29.709ZM48.1727 32.395C47.308 32.395 47.0578 32.0406 47.0578 31.4938C47.0578 30.9558 47.3299 30.6014 48.1683 30.6014C49.0857 30.6014 49.2921 30.9995 49.2921 31.4938C49.2921 32.0188 49.0418 32.395 48.1727 32.395Z" fill="white"/>
<path d="M39.7267 32.1545C39.7267 31.5551 39.3448 31.2401 38.4537 31.1438C38.3089 31.1264 37.8831 31.0826 37.6153 31.0608C36.9261 30.9863 36.7198 30.947 36.7198 30.7721C36.7198 30.6146 36.8822 30.5402 37.5012 30.5402C37.9401 30.5402 38.1859 30.6233 38.2826 30.7501C38.3308 30.8114 38.3483 30.8595 38.3528 30.9077H39.617C39.6038 30.8027 39.56 30.6539 39.4897 30.5227C39.2613 30.0853 38.7127 29.7353 37.5318 29.7353C36.2019 29.7353 35.4732 30.2033 35.4732 30.8158C35.4732 31.4064 35.8858 31.752 37.0007 31.8526C37.1544 31.8658 37.5231 31.9007 37.7558 31.9226C38.3397 31.9838 38.4976 32.0233 38.4976 32.207C38.4976 32.3775 38.344 32.4694 37.6987 32.4694C37.1983 32.4694 36.9042 32.3951 36.7988 32.2682C36.7549 32.2157 36.7242 32.137 36.7155 32.0845H35.4512C35.4644 32.172 35.4863 32.3118 35.5346 32.4257C35.7498 32.9069 36.3117 33.2743 37.6153 33.2743C39.0156 33.2743 39.7267 32.8806 39.7267 32.1545Z" fill="white"/>
<path fill-rule="evenodd" clip-rule="evenodd" d="M30.9619 32.2506C30.9619 32.4869 30.8961 32.7187 30.7643 32.8717C30.5624 33.1168 30.1849 33.2217 29.6978 33.2217H26.6382V29.7877H29.6143C30.0884 29.7877 30.3913 29.9014 30.5581 30.072C30.7073 30.2207 30.7732 30.4176 30.7732 30.6407C30.7732 30.8639 30.7205 31.0476 30.6064 31.1832C30.5141 31.297 30.3562 31.3844 30.1894 31.4064C30.4352 31.4369 30.6679 31.5594 30.7995 31.73C30.9092 31.8569 30.9619 32.0493 30.9619 32.2506ZM29.4826 31.0476C29.5265 30.9994 29.5529 30.9294 29.5529 30.8464C29.5529 30.7632 29.5265 30.6932 29.4694 30.6452C29.408 30.5881 29.2938 30.5663 29.1271 30.5663H27.7882V31.1263H29.1578C29.307 31.1263 29.4213 31.1045 29.4826 31.0476ZM29.285 32.4431C29.4914 32.4431 29.6143 32.4168 29.6846 32.3513C29.7284 32.3074 29.7459 32.2419 29.7459 32.1587C29.7459 32.0713 29.7241 32.0057 29.6713 31.9532C29.6055 31.8963 29.4914 31.87 29.2983 31.87H27.7882V32.4431H29.285Z" fill="white"/>
<path d="M35.0951 32.3688V33.2217H31.4648V29.7877H35.0643V30.6452H32.6236V31.0869H34.994V31.9225H32.6236V32.3688H35.0951Z" fill="white"/>
<path d="M43.9982 29.7877V30.6495H42.5409V33.2217H41.3383V30.6495H39.8853V29.7877H43.9982Z" fill="white"/>
<path d="M54.5029 29.7877V30.6582H52.1633V31.1438H54.3931V32.0057H52.1633V33.2217H50.9824V29.7877H54.5029Z" fill="white"/>
<path d="M60.4504 30.6495V29.7877H56.3374V30.6495H57.7904V33.2217H58.9932V30.6495H60.4504Z" fill="white"/>
<path d="M64.9378 29.7877V33.2217H63.7613V31.975H61.9966V33.2217H60.8203V29.7877H61.9966V31.0388H63.7613V29.7877H64.9378Z" fill="white"/>
<path d="M69.2645 33.2217V32.3688H66.7931V31.9225H69.1634V31.0869H66.7931V30.6452H69.2337V29.7877H65.6343V33.2217H69.2645Z" fill="white"/>
<path d="M76.5418 29.7877H77.6781L76.4189 33.2217H75.1287C75.1287 33.2217 74.4388 31.1701 74.4343 31.1132C74.4308 31.1701 73.7363 33.2217 73.7363 33.2217H72.4507L71.1602 29.7877H72.4369C72.4369 29.7877 73.1842 31.9487 73.1842 32.0012C73.1842 31.9487 73.873 29.7877 73.873 29.7877H75.1069C75.1069 29.7877 75.8002 31.9487 75.8002 32.0012C75.8002 31.9487 76.5418 29.7877 76.5418 29.7877Z" fill="white"/>
<path fill-rule="evenodd" clip-rule="evenodd" d="M79.9328 29.709C78.4141 29.709 77.6152 30.4266 77.6152 31.4808C77.6152 32.6706 78.4532 33.2743 79.9328 33.2743C81.5617 33.2743 82.2459 32.5745 82.2459 31.4808C82.2459 30.3697 81.4732 29.709 79.9328 29.709ZM79.9328 32.395C79.0685 32.395 78.8182 32.0406 78.8182 31.4938C78.8182 30.9558 79.0903 30.6014 79.9282 30.6014C80.8469 30.6014 81.0519 30.9995 81.0519 31.4938C81.0519 32.0188 80.8019 32.395 79.9328 32.395Z" fill="white"/>
<path fill-rule="evenodd" clip-rule="evenodd" d="M86.5925 30.1377C86.7501 30.2996 86.8249 30.5226 86.8249 30.8332C86.8249 31.1001 86.7589 31.3275 86.6488 31.4807C86.5266 31.6469 86.3384 31.7869 86.1052 31.8218L87.1449 33.2217H85.8375L84.9812 32.01H83.915V33.2217H82.7427V29.7877H85.4861C86.0305 29.7877 86.3858 29.9189 86.5925 30.1377ZM85.6445 31.122C85.6743 31.0694 85.6839 30.9994 85.6839 30.9425C85.6839 30.8769 85.6743 30.807 85.6445 30.7632C85.5826 30.6495 85.4596 30.6189 85.2754 30.6189H83.9198V31.2445H85.2972C85.4861 31.2445 85.6003 31.2095 85.6445 31.122Z" fill="white"/>
<path d="M90.8099 33.2217V32.3074H88.7121V29.7877H87.5229V33.2217H90.8099Z" fill="white"/>
<path fill-rule="evenodd" clip-rule="evenodd" d="M95.4644 31.4413C95.4644 31.975 95.4121 32.2637 95.2545 32.535C95.0173 32.968 94.5477 33.2217 93.718 33.2217H91.2769V29.7877H93.6914C94.5164 29.7877 95.0044 30.0195 95.2457 30.4176C95.4161 30.6845 95.4644 30.9688 95.4644 31.4413ZM93.4936 32.3774C93.8667 32.3774 94.0782 32.29 94.2052 32.0975C94.2848 31.9793 94.3065 31.7037 94.3065 31.4632C94.3017 31.2445 94.2752 31.0126 94.2052 30.9076C94.0685 30.702 93.8635 30.6277 93.5033 30.6277H92.454V32.3774H93.4936Z" fill="white"/>
<path d="M48.3772 49.9233H46.5583C46.5583 49.9233 45.3713 53.381 45.3713 53.465C45.3713 53.381 44.2617 49.9233 44.2617 49.9233H42.2881C42.2881 49.9233 41.1855 53.381 41.1855 53.465C41.1855 53.381 39.9916 49.9233 39.9916 49.9233H37.9478L40.0126 55.4177H42.0704C42.0704 55.4177 43.1801 52.1351 43.187 52.0441C43.1942 52.1351 44.2967 55.4177 44.2967 55.4177H46.3615L48.3772 49.9233Z" fill="white"/>
<path d="M50.8665 55.4177V49.9233H48.9351V55.4177H50.8665Z" fill="white"/>
<path d="M58.3788 49.9233V55.4177H56.4965L53.7646 52.3591V55.4177H51.9526V49.9233H53.9331L56.5808 52.9121V49.9233H58.3788Z" fill="white"/>
<path d="M65.9028 55.4177V49.9233H64.1049V52.9121L61.4571 49.9233H59.4766V55.4177H61.2885V52.3591L64.0206 55.4177H65.9028Z" fill="white"/>
<path d="M72.8093 54.0529V55.4177H67.0005V49.9233H72.7599V51.2952H68.8547V52.0022H72.6474V53.339H68.8547V54.0529H72.8093Z" fill="white"/>
<path fill-rule="evenodd" clip-rule="evenodd" d="M80.2327 51.5962C80.2327 51.0993 80.1133 50.7423 79.8607 50.4833C79.5302 50.1334 78.9619 49.9233 78.0907 49.9233H73.7012V55.4177H75.5768V53.4789H77.2837L78.6532 55.4177H80.7454L79.0813 53.1781C79.4532 53.1221 79.7551 52.8981 79.9525 52.6321C80.127 52.3871 80.2327 52.0231 80.2327 51.5962ZM78.4063 51.7713C78.4063 51.8621 78.3926 51.9741 78.3432 52.0581C78.2732 52.1981 78.0907 52.2541 77.7888 52.2541H75.5837V51.2533H77.7532C78.0482 51.2533 78.2457 51.3022 78.3432 51.4842C78.3926 51.5542 78.4063 51.6662 78.4063 51.7713Z" fill="white"/>
<path d="M42.7695 40.2298L42.0078 37.8937L41.2462 40.2298H38.7812L40.7754 41.6737L40.0138 44.0099L42.0078 42.5661L44.0019 44.0099L43.2402 41.6737L45.2343 40.2298H42.7695Z" fill="white"/>
<path d="M50.8011 37.8922L51.5784 40.2284H54.0935L52.0588 41.6723L52.836 44.0084L50.8011 42.5646L48.7664 44.0084L49.5437 41.6723L47.5088 40.2284H50.024L50.8011 37.8922Z" fill="white"/>
<path d="M60.3016 40.2284L59.5245 37.8922L58.7473 40.2284H56.2319L58.2668 41.6723L57.4896 44.0084L59.5245 42.5646L61.5592 44.0084L60.782 41.6723L62.8168 40.2284H60.3016Z" fill="white"/>
<path d="M68.2485 37.8922L69.0257 40.2284H71.5409L69.5061 41.6723L70.2833 44.0084L68.2485 42.5646L66.2137 44.0084L66.991 41.6723L64.9561 40.2284H67.4714L68.2485 37.8922Z" fill="white"/>
<path d="M77.8039 40.2284L77.0417 37.8922L76.2794 40.2284H73.8149L75.8088 41.6723L75.0478 44.0084L77.0417 42.5646L79.0355 44.0084L78.2745 41.6723L80.2684 40.2284H77.8039Z" fill="white"/>
<path d="M109.781 12.838C110.51 10.9911 110.193 8.86711 109.522 7.08088C108.815 5.20145 107.584 3.32682 105.745 2.33832C105.653 4.3191 106.26 6.27586 106.924 8.04047C107.521 9.62743 108.252 11.3182 109.461 12.6307C109.647 13.6251 109.789 14.6166 109.889 15.6037C109.489 14.5612 108.84 13.611 108.029 12.8469C106.986 11.8625 105.433 11.1031 103.976 11.5522C104.403 13.1573 105.375 14.6961 106.528 15.7756C107.435 16.6253 108.632 17.7138 110.042 17.7568C110.1 19.2097 110.067 20.6494 109.946 22.0695C109.748 21.0303 109.322 20.0518 108.706 19.3231C107.86 18.3217 106.605 17.0984 105.004 17.303C105.091 18.9277 105.742 20.5923 106.647 21.8431C107.366 22.8371 108.316 24.1041 109.665 24.4313C109.449 25.8265 109.149 27.1984 108.767 28.541C108.763 27.513 108.536 26.5039 108.083 25.6945C107.446 24.5533 106.453 23.1298 104.85 23.0185C104.615 24.6125 104.934 26.3549 105.576 27.7406C106.089 28.8483 106.775 30.261 108.022 30.8454C107.498 32.2902 106.878 33.6948 106.166 35.0502C106.416 33.8818 106.406 32.6506 106.111 31.5426C105.704 30.0157 104.693 28.4116 103.071 27.9462C102.497 29.6322 102.575 31.5134 102.91 33.2268C103.184 34.6377 103.723 36.2946 104.93 37.211C104.14 38.4816 103.267 39.701 102.313 40.8612C102.826 39.7234 103.08 38.4789 102.943 37.3396C102.744 35.6804 102.277 33.9058 100.577 33.0214C99.6117 34.6801 99.3882 36.5411 99.307 38.3791C99.2402 39.8651 99.4549 41.698 100.491 42.907C99.3512 44.0868 98.1234 45.1911 96.8112 46.2094C97.6579 45.126 98.252 43.8547 98.3767 42.5975C98.5544 40.821 98.4683 38.8655 96.886 37.5618C95.5335 38.97 94.7255 41.0438 94.3307 42.8452C93.9801 44.4377 93.6151 46.3228 94.4473 47.8902C92.7772 48.9772 90.9939 49.9348 89.1075 50.7459C90.4342 49.8035 91.5205 48.5105 92.0383 47.1754C92.7169 45.4258 93.1359 43.3409 91.8156 41.5885C90.0451 42.7182 88.7449 44.6454 87.7197 46.4034C86.8409 47.9118 85.9299 49.9938 86.3826 51.7901C85.3381 52.1431 84.2671 52.4531 83.1704 52.7176L83.2363 52.9859C84.3355 52.7204 85.4113 52.4094 86.4598 52.0553C87.1939 54.2181 89.6004 54.9328 91.5454 55.2482C94.3178 55.6977 97.6193 54.8269 99.9864 53.0724C98.7361 51.313 96.188 51.1346 94.2664 51L94.2406 50.9982C92.1356 50.8508 89.8585 51.0478 87.7415 51.5961C90.1866 50.6682 92.4757 49.5014 94.5864 48.1298L94.6153 48.1755C95.7707 50.0473 98.0945 50.1205 99.9172 50.0022C102.391 49.8418 105.246 48.3433 106.897 46.2719C105.343 44.9131 103.049 45.2933 101.27 45.5878L101.26 45.5894C99.2756 45.9182 97.1071 46.6354 95.2867 47.7398C95.4604 47.6038 95.6284 47.4599 95.7941 47.309C97.5638 46.0513 99.196 44.6443 100.679 43.1102C100.699 43.1307 100.72 43.1508 100.741 43.1709C102.182 44.6044 104.274 44.2262 105.909 43.757C108.102 43.1278 110.375 41.2297 111.463 39.0505C109.775 38.1078 107.758 38.8845 106.188 39.499C104.463 40.174 102.639 41.254 101.236 42.631C101.381 42.4491 101.52 42.259 101.651 42.0622C102.953 40.596 104.126 39.0259 105.157 37.3694L105.202 37.397L105.214 37.4042C106.843 38.4489 108.689 37.6903 110.15 36.9442C112.136 35.9319 113.731 33.7071 114.42 31.5192C112.659 30.9571 110.92 32.0602 109.567 32.9339C108.086 33.8899 106.588 35.2535 105.559 36.8174C105.635 36.6631 105.706 36.5053 105.772 36.3446C106.76 34.626 107.599 32.8219 108.279 30.9505L108.314 30.9624L108.32 30.9647C109.801 31.5238 111.451 30.6513 112.526 29.6944C114.021 28.3638 115.076 26.318 115.323 24.3193C113.778 24.1198 112.321 25.3114 111.326 26.3276C110.18 27.4981 109.151 28.8815 108.518 30.4183C108.566 30.2506 108.606 30.0803 108.639 29.9082C109.214 28.1501 109.65 26.337 109.937 24.4835L109.981 24.4893C111.542 24.7411 112.986 23.5573 113.849 22.4081C115.064 20.7911 115.69 18.5532 115.532 16.5247C113.972 16.6336 112.783 18.1134 112.013 19.3107C111.119 20.6973 110.379 22.2667 110.056 23.9087C110.066 23.7773 110.072 23.6453 110.074 23.5129C110.311 21.6262 110.396 19.7007 110.318 17.7516C111.913 17.6959 113.094 16.2206 113.702 14.9124C114.571 13.0412 114.711 10.6757 114.131 8.68231C112.613 9.10711 111.766 10.8428 111.266 12.1791C110.69 13.7198 110.289 15.4004 110.285 17.071C110.203 15.6694 110.035 14.2566 109.781 12.838Z" fill="white"/>
</svg>
