<svg width="67" height="60" viewBox="0 0 67 60" fill="none" xmlns="http://www.w3.org/2000/svg">
<path d="M22.2009 20.4445C22.2009 20.2934 22.2009 18.095 22.2009 18.095H21.0092C21.0092 18.095 21.0092 20.2593 21.0092 20.3276C21.0092 20.7273 20.6713 20.9954 20.1021 20.9954C19.5063 20.9954 19.1816 20.737 19.1816 20.3226C19.1816 20.2544 19.1816 18.095 19.1816 18.095H17.9766C17.9766 18.095 17.9766 20.1471 17.9766 20.3226C17.9766 21.4827 18.8436 21.975 20.0532 21.975C21.3472 21.975 22.2009 21.4778 22.2009 20.4445Z" fill="white"/>
<path d="M26.2139 21.9214V20.9027H24.0884V18.095H22.8833V21.9214H26.2139Z" fill="white"/>
<path d="M29.7954 19.0554V18.095H25.6289V19.0554H27.1007V21.9214H28.3191V19.0554H29.7954Z" fill="white"/>
<path d="M31.3976 21.9214V18.095H30.1748V21.9214H31.3976Z" fill="white"/>
<path d="M37.0075 21.9214V18.095H35.5L34.5485 20.391L33.6413 18.095H32.085V21.9214H33.2189V19.8548L34.0371 21.9214H35.0509L35.878 19.8548V21.9214H37.0075Z" fill="white"/>
<path d="M38.8965 21.2146H40.7819L41.0888 21.9214H42.3738L40.6129 18.095H39.1767L37.3135 21.9214H38.5718L38.8965 21.2146ZM40.4039 20.3567H39.2878L39.728 19.4355L39.8614 19.0846L39.986 19.4306L40.4039 20.3567Z" fill="white"/>
<path d="M46.1532 19.0554V18.095H41.9868V19.0554H43.4586V21.9214H44.6771V19.0554H46.1532Z" fill="white"/>
<path d="M50.2054 21.9214V20.971H47.7028V20.4738H50.1033V19.5428H47.7028V19.0504H50.1747V18.095H46.5288V21.9214H50.2054Z" fill="white"/>
<path d="M27.0639 23.9554H25.9121C25.9121 23.9554 25.1606 26.3634 25.1606 26.4218C25.1606 26.3634 24.458 23.9554 24.458 23.9554H23.2085C23.2085 23.9554 22.5104 26.3634 22.5104 26.4218C22.5104 26.3634 21.7545 23.9554 21.7545 23.9554H20.4604L21.7678 27.7818H23.0707C23.0707 27.7818 23.7733 25.4958 23.7778 25.4324C23.7821 25.4958 24.4803 27.7818 24.4803 27.7818H25.7876L27.0639 23.9554Z" fill="white"/>
<path d="M28.6398 27.7818V23.9554H27.417V27.7818H28.6398Z" fill="white"/>
<path d="M33.3964 27.7818V23.9554H32.2581V26.0367L30.5816 23.9554H29.3276V27.7818H30.4749V25.6517L32.2047 27.7818H33.3964Z" fill="white"/>
<path d="M38.16 27.7818V23.9554H37.0217V26.0367L35.3452 23.9554H34.0913V27.7818H35.2385V25.6517L36.9683 27.7818H38.16Z" fill="white"/>
<path d="M42.5329 27.7818V26.8313H40.0294V26.3341H42.4306V25.4031H40.0294V24.9108H42.5018V23.9554H38.8555V27.7818H42.5329Z" fill="white"/>
<path d="M47.2332 25.1204C47.2332 24.7743 47.1572 24.5257 46.9971 24.3454C46.7882 24.1017 46.4282 23.9554 45.8765 23.9554H43.0977V27.7818H44.2849V26.4317H45.3655L46.2328 27.7818H47.5579L46.5042 26.2219C46.7393 26.183 46.9311 26.027 47.055 25.8418C47.1662 25.6712 47.2332 25.4177 47.2332 25.1204ZM46.0773 25.2422C46.0773 25.3057 46.0682 25.3836 46.0366 25.4421C45.9923 25.5395 45.8765 25.5786 45.6857 25.5786H44.2894V24.8815H45.663C45.8503 24.8815 45.9751 24.9156 46.0366 25.0424C46.0682 25.0911 46.0773 25.1691 46.0773 25.2422Z" fill="white"/>
<path d="M22.7021 31.5463C22.7021 31.4838 22.7021 29.6766 22.7021 29.6766H22.2857C22.2857 29.6766 22.2857 31.4763 22.2857 31.5169C22.2857 31.9511 21.913 32.1978 21.3758 32.1978C20.7413 32.1978 20.429 31.9328 20.429 31.5132C20.429 31.4727 20.429 29.6766 20.429 29.6766H20.0093C20.0093 29.6766 20.0093 31.4286 20.0093 31.4984C20.0093 32.264 20.5532 32.6027 21.3591 32.6027C22.1917 32.6027 22.7021 32.2419 22.7021 31.5463Z" fill="white"/>
<path d="M25.6893 32.5659V32.1426H23.8728V29.6766H23.4531V32.5659H25.6893Z" fill="white"/>
<path d="M28.0743 30.0962V29.6766H25.2739V30.0962H26.4625V32.5659H26.8856V30.0962H28.0743Z" fill="white"/>
<path d="M31.0587 30.4936C31.0587 30.2875 31.0184 30.1366 30.948 30.0151C30.8237 29.8127 30.5853 29.6766 30.1891 29.6766H28.4834V32.5659H28.8964V31.3475H30.0984L30.8337 32.5659H31.3173L30.5215 31.2703C30.7229 31.2446 30.8808 31.1193 30.9647 30.9575C31.0252 30.847 31.0587 30.6851 31.0587 30.4936ZM30.6423 30.5304C30.6423 30.6114 30.6256 30.7108 30.5954 30.7771C30.5417 30.8838 30.4174 30.939 30.216 30.9427H28.8997C28.8997 30.9353 28.8997 30.0888 28.8997 30.0888H30.1387C30.3906 30.0888 30.5249 30.1551 30.5954 30.2802C30.6256 30.3391 30.6423 30.4384 30.6423 30.5304Z" fill="white"/>
<path d="M32.2535 31.8518H33.8955L34.2312 32.5659H34.6811L33.3447 29.6766H32.8512L31.4712 32.5659H31.911L32.2535 31.8518ZM33.7208 31.4432H32.4348L32.9686 30.3354L33.0863 30.0667L33.2037 30.3354L33.7208 31.4432Z" fill="white"/>
<path d="M38.9395 32.2899C39.0436 32.1573 39.0906 31.9696 39.0906 31.7671C39.0906 31.5758 39.0402 31.3843 38.9362 31.2666C38.832 31.1562 38.6642 31.0642 38.4795 31.0458C38.587 31.0273 38.6709 30.9538 38.728 30.8764C38.8187 30.7623 38.8723 30.5783 38.8723 30.3943C38.8723 30.1991 38.8187 30.0225 38.7044 29.9011C38.5803 29.7649 38.3687 29.6766 38.0732 29.6766H36.3003V32.5659H38.2042C38.5601 32.5659 38.8086 32.4665 38.9395 32.2899ZM38.4391 30.4863C38.4391 30.6151 38.4023 30.7292 38.3385 30.7955C38.2746 30.8727 38.1672 30.9059 38.0531 30.9059H36.7099V30.074H37.9758C38.1303 30.074 38.2478 30.1071 38.3284 30.1882C38.3989 30.2617 38.4391 30.3685 38.4391 30.4863ZM38.5735 32.01C38.4895 32.1131 38.3452 32.1647 38.1336 32.1647H36.7099V31.3071H38.1437C38.3385 31.3071 38.4728 31.3512 38.5534 31.4359C38.6272 31.5132 38.6575 31.6126 38.6575 31.7267C38.6575 31.8445 38.634 31.9438 38.5735 32.01Z" fill="white"/>
<path d="M42.139 32.5659V32.1426H40.0909V31.3181H42.0584V30.8985H40.0909V30.0962H42.1155V29.6766H39.6812V32.5659H42.139Z" fill="white"/>
<path d="M45.419 31.7119C45.419 31.2408 45.1341 30.9979 44.4323 30.9095C44.3143 30.8912 44.0592 30.8618 43.9214 30.8433C43.2701 30.7587 43.072 30.663 43.072 30.4164C43.072 30.1771 43.2903 30.0409 43.9483 30.0409C44.4585 30.0409 44.7207 30.1514 44.8519 30.3501C44.8889 30.4053 44.9089 30.4716 44.9188 30.5231H45.3684C45.3557 30.4384 45.325 30.3207 45.2779 30.225C45.097 29.8827 44.7244 29.636 43.9483 29.636C43.0216 29.6323 42.6389 30.0005 42.6389 30.4568C42.6389 30.9132 42.9377 31.1451 43.7134 31.2446C43.8477 31.2629 44.086 31.2923 44.2036 31.3071C44.8048 31.388 44.993 31.4875 44.993 31.7635C44.993 32.0175 44.7777 32.2015 44.0893 32.2015C43.5254 32.2015 43.223 32.0911 43.1022 31.8776C43.0653 31.8187 43.0418 31.7267 43.0384 31.6641H42.5952C42.6053 31.7966 42.6389 31.9402 42.6993 32.0543C42.8739 32.4039 43.2836 32.6064 44.076 32.6064C45.0229 32.6064 45.419 32.2714 45.419 31.7119Z" fill="white"/>
<path d="M48.43 30.0962V29.6766H45.6299V30.0962H46.8183V32.5659H47.2416V30.0962H48.43Z" fill="white"/>
<path d="M18.8202 35.0771C18.8202 34.7827 18.7665 34.5839 18.6757 34.433C18.5482 34.2157 18.2997 34.1017 17.8666 34.1017H16.2012V36.991H16.6174V36.0487C16.6174 36.0487 17.7927 36.0487 17.8498 36.0487C18.2561 36.0451 18.5347 35.9421 18.6825 35.7065C18.7765 35.5629 18.8202 35.3568 18.8202 35.0771ZM18.3971 35.0771C18.3971 35.2242 18.3836 35.3347 18.34 35.4084C18.2628 35.5445 18.1049 35.6292 17.7792 35.6292C17.749 35.6292 16.6174 35.6292 16.6174 35.6292V34.514H17.7927C18.0982 34.514 18.2561 34.5912 18.34 34.7421C18.3803 34.8083 18.3971 34.9299 18.3971 35.0771Z" fill="white"/>
<path d="M21.8597 36.991V36.5677H19.8115V35.7433H21.7791V35.3237H19.8115V34.5213H21.8362V34.1017H19.4019V36.991H21.8597Z" fill="white"/>
<path d="M25.0627 34.9188C25.0627 34.7127 25.0224 34.5617 24.9519 34.4403C24.8276 34.2379 24.5893 34.1017 24.193 34.1017H22.4873V36.991H22.9003V35.7727H24.1024L24.8377 36.991H25.3213L24.5254 35.6954C24.7269 35.6697 24.8847 35.5445 24.9687 35.3826C25.0291 35.2721 25.0627 35.1102 25.0627 34.9188ZM24.6463 34.9556C24.6463 35.0365 24.6295 35.136 24.5993 35.2022C24.5456 35.3089 24.4213 35.3641 24.2199 35.3678H22.9037C22.9037 35.3605 22.9037 34.514 22.9037 34.514H24.1426C24.3945 34.514 24.5288 34.5802 24.5993 34.7053C24.6295 34.7642 24.6463 34.8636 24.6463 34.9556Z" fill="white"/>
<path d="M28.1757 34.5213V34.1017H25.832V36.991H26.2484V35.7617H28.0885V35.331H26.2484V34.5213H28.1757Z" fill="white"/>
<path d="M30.0864 34.0502C29.5257 34.0502 29.1395 34.2011 28.8641 34.5177C28.6325 34.7643 28.5317 35.1066 28.5317 35.5371C28.5317 36.0083 28.6628 36.3617 28.9045 36.6009C29.1631 36.8843 29.5592 37.0315 30.0864 37.0315C30.6304 37.0315 31.0533 36.8843 31.3052 36.5861C31.5235 36.3432 31.6376 35.9973 31.6376 35.5335C31.6376 35.0845 31.5403 34.7422 31.3086 34.4992C31.0434 34.1975 30.6471 34.0502 30.0864 34.0502ZM30.0864 36.6193C29.7171 36.6193 29.4551 36.531 29.257 36.3543C29.0556 36.174 28.9582 35.8979 28.9582 35.5445C28.9582 35.2133 29.0421 34.9372 29.2033 34.7716C29.388 34.5803 29.67 34.4661 30.0831 34.4661C30.5094 34.4661 30.7747 34.5766 30.9728 34.7679C31.1407 34.9299 31.2146 35.217 31.2146 35.5408C31.2146 35.8684 31.1374 36.1482 30.9661 36.3175C30.768 36.5199 30.4894 36.6193 30.0864 36.6193Z" fill="white"/>
<path d="M34.7882 34.9188C34.7882 34.7127 34.7479 34.5617 34.6775 34.4403C34.5532 34.2379 34.3147 34.1017 33.9186 34.1017H32.2129V36.991H32.6259V35.7727H33.8279L34.5633 36.991H35.0467L34.251 35.6954C34.4524 35.6697 34.6103 35.5445 34.6941 35.3826C34.7547 35.2721 34.7882 35.1102 34.7882 34.9188ZM34.3718 34.9556C34.3718 35.0365 34.3551 35.136 34.3249 35.2022C34.2712 35.3089 34.1469 35.3641 33.9455 35.3678H32.6292C32.6292 35.3605 32.6292 34.514 32.6292 34.514H33.8682C34.1201 34.514 34.2544 34.5802 34.3249 34.7053C34.3551 34.7642 34.3718 34.8636 34.3718 34.9556Z" fill="white"/>
<path d="M38.8045 36.991V34.1017H38.2606L37.176 36.4794L36.1116 34.1017H35.5576V36.991H35.9572V34.7679L36.951 36.991H37.3875L38.4049 34.7679V36.991H38.8045Z" fill="white"/>
<path d="M39.9835 36.2769H41.6255L41.9612 36.991H42.4112L41.0748 34.1017H40.5812L39.2012 36.991H39.641L39.9835 36.2769ZM41.4508 35.8684H40.1649L40.6987 34.7605L40.8162 34.4919L40.9338 34.7605L41.4508 35.8684Z" fill="white"/>
<path d="M45.4363 36.991V34.1017H45.0365V36.3469L43.2909 34.1017H42.8174V36.991H43.2237V34.7311L44.9832 36.991H45.4363Z" fill="white"/>
<path d="M49.0581 35.9127H48.6212C48.6077 36.0451 48.5606 36.1776 48.4765 36.277C48.2956 36.5089 48.0071 36.6083 47.5639 36.6083C47.1913 36.6083 46.7915 36.4941 46.5998 36.196C46.4994 36.0562 46.4352 35.8501 46.4352 35.5408C46.4352 35.2648 46.4795 35.0587 46.5763 34.9188C46.7373 34.6355 47.0764 34.4883 47.554 34.4883C48.0171 34.4883 48.3092 34.628 48.4638 34.8231C48.5507 34.9262 48.6013 35.0477 48.6176 35.1911H49.0545C49.0409 35.0293 48.9939 34.8378 48.8935 34.6759C48.6782 34.3263 48.2821 34.0502 47.5567 34.0502C46.8657 34.0502 46.4524 34.2931 46.2236 34.6575C46.0761 34.8673 46.002 35.1617 46.002 35.5371C46.002 35.9567 46.0933 36.266 46.2507 36.4831C46.4795 36.8255 46.9191 37.0315 47.5838 37.0315C48.2658 37.0315 48.6719 36.807 48.8736 36.45C48.9875 36.277 49.0446 36.0709 49.0581 35.9127Z" fill="white"/>
<path d="M52.0627 36.991V36.5677H50.0142V35.7433H51.9823V35.3237H50.0142V34.5213H52.0393V34.1017H49.6045V36.991H52.0627Z" fill="white"/>
<path d="M21.3557 39.8613L21.8579 41.5554H23.4829L22.1683 42.6025L22.6704 44.2965L21.3557 43.2496L20.041 44.2965L20.5432 42.6025L19.2285 41.5554H20.8536L21.3557 39.8613Z" fill="white"/>
<path d="M27.153 39.8613L27.6654 41.5554H29.3236L27.9821 42.6025L28.4945 44.2967L27.153 43.2496L25.8115 44.2967L26.3239 42.6025L24.9824 41.5554H26.6407L27.153 39.8613Z" fill="white"/>
<path d="M32.904 39.8613L33.4165 41.5554H35.0746L33.7331 42.6025L34.2456 44.2967L32.904 43.2496L31.5625 44.2967L32.0749 42.6025L30.7334 41.5554H32.3916L32.904 39.8613Z" fill="white"/>
<path d="M38.6559 39.8613L39.1683 41.5554H40.8266L39.4851 42.6025L39.9975 44.2967L38.6559 43.2496L37.3145 44.2967L37.8269 42.6025L36.4854 41.5554H38.1436L38.6559 39.8613Z" fill="white"/>
<path d="M44.4529 39.8613L44.9549 41.5554H46.5802L45.2651 42.6025L45.7671 44.2967L44.4529 43.2496L43.1381 44.2967L43.6403 42.6025L42.3257 41.5554H43.9507L44.4529 39.8613Z" fill="white"/>
<path d="M24.1723 11.2789L24.552 12.5597H25.7806L24.7867 13.3514L25.1663 14.6323L24.1723 13.8407L23.1783 14.6323L23.558 13.3514L22.564 12.5597H23.7927L24.1723 11.2789Z" fill="white"/>
<path d="M28.5558 11.277L28.9433 12.558H30.1969L29.1826 13.3497L29.5701 14.6305L28.5558 13.8388L27.5414 14.6305L27.9289 13.3497L26.9146 12.558H28.1683L28.5558 11.277Z" fill="white"/>
<path d="M32.9039 11.277L33.2913 12.558H34.545L33.5308 13.3497L33.9182 14.6305L32.9039 13.8388L31.8896 14.6305L32.2771 13.3497L31.2627 12.558H32.5165L32.9039 11.277Z" fill="white"/>
<path d="M37.253 11.277L37.6404 12.558H38.8942L37.8799 13.3497L38.2673 14.6305L37.253 13.8388L36.2387 14.6305L36.6261 13.3497L35.6118 12.558H36.8656L37.253 11.277Z" fill="white"/>
<path d="M41.6356 11.277L42.0154 12.558H43.244L42.25 13.3497L42.6297 14.6305L41.6356 13.8388L40.6416 14.6305L41.0213 13.3497L40.0273 12.558H41.2559L41.6356 11.277Z" fill="white"/>
<path fill-rule="evenodd" clip-rule="evenodd" d="M6.67142 34.334C4.99583 22.8423 9.88606 11.4727 19.6759 6.59021L19.7663 6.80793C10.0749 11.6412 5.22511 22.8996 6.88686 34.2962C8.72536 46.9047 18.0045 54.4664 29.3675 54.831L29.3611 55.0701C17.9095 54.7027 8.5288 47.0725 6.67142 34.334Z" fill="white"/>
<path d="M17.5534 9.52296C15.7443 9.56816 13.6268 10.6866 12.3774 12.3109C13.3794 13.3308 14.9915 12.9538 16.1517 12.7451C17.8074 12.4475 19.5682 11.8709 21.1306 11.0546C20.4882 9.5556 18.7577 9.49296 17.5534 9.52296Z" fill="white"/>
<path d="M16.131 7.07647C15.0594 8.90624 13.7823 10.7249 12.3925 12.3263C11.2297 11.1299 11.9316 9.1388 12.4062 7.90056C13.2659 5.65693 15.327 3.72213 17.4818 2.73218C18.0733 4.20715 16.7887 5.95337 16.131 7.07647Z" fill="white"/>
<path d="M12.3182 14.6541C10.6241 15.3142 9.16838 17.1724 8.4375 19.0379C9.65566 19.6588 11.0405 18.7622 12.0535 18.1653C13.4446 17.3455 14.8637 16.2145 15.9804 14.9056C14.9715 13.7387 13.4395 14.2173 12.3182 14.6541Z" fill="white"/>
<path d="M10.2646 12.8258C9.89377 14.9127 9.27206 17.0759 8.45553 19.0475C7.0303 18.3106 7.08457 16.2003 7.14562 14.8572C7.24981 12.5649 8.4197 9.95089 10.0485 8.28961C11.0457 9.46153 10.5009 11.4963 10.2646 12.8258Z" fill="white"/>
<path d="M9.05863 21.2788C7.64704 22.4995 6.79143 24.7616 6.59326 26.7817C7.92859 26.9498 8.99593 25.6176 9.79017 24.7037C10.8714 23.4594 11.895 21.8987 12.545 20.2659C11.2721 19.5046 9.97806 20.4837 9.05863 21.2788Z" fill="white"/>
<path d="M6.61305 20.2484C6.86476 22.3558 6.86531 24.6359 6.6135 26.7845C5.06056 26.5754 4.54547 24.5315 4.24121 23.2492C3.71591 21.036 4.0681 18.177 5.0914 16.0254C6.37021 16.8014 6.45224 18.9012 6.61305 20.2484Z" fill="white"/>
<path d="M7.95086 28.5099C6.83386 30.3035 6.44106 33.1143 6.94339 35.3736C8.41943 34.9905 9.15118 33.1587 9.73867 31.8649C10.5195 30.1455 11.1795 28.1395 11.4157 26.1714C9.81478 25.8061 8.68663 27.3283 7.95086 28.5099Z" fill="white"/>
<path d="M5.01865 28.3285C5.88891 30.5372 6.56806 32.9681 6.96548 35.3681C5.27262 35.7668 4.05423 33.8182 3.34641 32.5261C2.08623 30.2262 1.71911 27.0378 2.18074 24.2864C3.73016 24.6269 4.48837 26.9831 5.01865 28.3285Z" fill="white"/>
<path d="M8.73225 36.3136C8.13245 38.4894 8.54931 41.4473 9.76368 43.4929C11.0981 42.5405 11.2828 40.4444 11.4719 38.9415C11.7212 36.9582 11.8386 34.7611 11.5288 32.7046C9.82209 32.9435 9.13279 34.86 8.73225 36.3136Z" fill="white"/>
<path d="M5.76624 37.245C7.26365 39.1285 8.64491 41.2759 9.78413 43.4788C8.23912 44.5361 6.42613 43.0917 5.32659 42.0695C3.37596 40.2562 2.10936 37.1743 1.80908 34.2688C3.43239 34.0297 4.86296 36.1087 5.76624 37.245Z" fill="white"/>
<path d="M11.8792 43.7192C12.0079 46.2518 13.5121 48.9094 15.5149 50.4221C16.4821 48.9705 15.8759 46.7464 15.546 45.1939C15.1018 43.1036 14.487 40.927 13.5734 38.9957C11.9803 39.9185 11.7945 42.0513 11.8792 43.7192Z" fill="white"/>
<path d="M9.18547 45.8585C11.3553 47.1803 13.5189 48.7399 15.5307 50.3995C14.3259 52.1385 11.9179 51.445 10.4252 50.8861C7.79464 49.9011 5.44951 47.3045 4.22461 44.4197C5.77765 43.5428 7.90366 45.0778 9.18547 45.8585Z" fill="white"/>
<path d="M18.0595 49.9065C19.3618 52.5118 22.3296 54.2115 25.1244 54.6206C25.4251 52.7266 23.5555 50.8512 22.5368 49.6244C21.0863 47.8778 19.5749 46.0653 17.8803 44.5551C16.6107 46.171 17.2819 48.3511 18.0595 49.9065Z" fill="white"/>
<path d="M16.1993 53.2084C19.1596 53.5458 22.1701 54.0315 25.1288 54.5916C24.8463 56.9814 21.3867 57.3671 19.8162 57.5081C16.5958 57.7974 13.0135 56.3785 10.519 53.9897C11.758 52.3917 14.6223 53.0288 16.1993 53.2084Z" fill="white"/>
<path d="M21.9013 4.58439C19.9137 5.20593 17.5873 6.38505 16.438 8.56165C18.5241 8.31237 20.5744 7.49873 22.5795 6.87878C24.8254 6.18428 27.1903 5.66486 29.3648 4.70624C26.9833 3.66185 24.1761 3.87293 21.9013 4.58439Z" fill="white"/>
<path fill-rule="evenodd" clip-rule="evenodd" d="M60.3521 34.2962C62.0136 22.8996 57.1639 11.6414 47.4728 6.80793L47.5632 6.59021C57.353 11.4727 62.2433 22.8423 60.5674 34.334C58.7105 47.0725 49.3296 54.7027 37.8779 55.0701L37.8716 54.831C49.2346 54.4664 58.5134 46.9047 60.3521 34.2962Z" fill="white"/>
<path d="M49.686 9.52296C51.4949 9.56816 53.6122 10.6866 54.8621 12.3109C53.8601 13.3308 52.2474 12.9538 51.0879 12.7451C49.4318 12.4475 47.6709 11.8709 46.1089 11.0546C46.751 9.5556 48.4813 9.49296 49.686 9.52296Z" fill="white"/>
<path d="M51.1088 7.07647C52.1806 8.90624 53.4577 10.7249 54.8469 12.3263C56.01 11.1299 55.3082 9.1388 54.8333 7.90056C53.9741 5.65693 51.9128 3.72213 49.7576 2.73218C49.1661 4.20715 50.4513 5.95337 51.1088 7.07647Z" fill="white"/>
<path d="M54.9219 14.6541C56.616 15.3142 58.0712 17.1724 58.802 19.0379C57.5837 19.6588 56.199 18.7622 55.186 18.1653C53.795 17.3455 52.3759 16.2145 51.2598 14.9056C52.2683 13.7387 53.8004 14.2173 54.9219 14.6541Z" fill="white"/>
<path d="M56.9756 12.8258C57.3464 14.9127 57.9678 17.0759 58.7845 19.0475C60.2099 18.3106 60.1556 16.2003 60.0941 14.8572C59.9901 12.5649 58.8206 9.95089 57.1917 8.28961C56.1942 9.46153 56.7395 11.4963 56.9756 12.8258Z" fill="white"/>
<path d="M58.1806 21.2788C59.5925 22.4995 60.4481 24.7616 60.6462 26.7817C59.3112 26.9498 58.2439 25.6176 57.4498 24.7037C56.3681 23.4594 55.3442 21.8987 54.6948 20.2659C55.9674 19.5046 57.2617 20.4837 58.1806 21.2788Z" fill="white"/>
<path d="M60.6274 20.2484C60.375 22.3556 60.375 24.6359 60.6264 26.7845C62.1794 26.5754 62.695 24.5315 62.9988 23.2492C63.5243 21.036 63.1716 18.177 62.1486 16.0254C60.8697 16.8014 60.7874 18.9012 60.6274 20.2484Z" fill="white"/>
<path d="M59.2887 28.5099C60.4057 30.3035 60.7983 33.1143 60.2963 35.3736C58.8202 34.9905 58.0885 33.1587 57.5006 31.8649C56.7201 30.1455 56.0598 28.1395 55.8237 26.1714C57.4246 25.8061 58.5534 27.3283 59.2887 28.5099Z" fill="white"/>
<path d="M62.2208 28.3285C61.3507 30.5372 60.6715 32.9681 60.2744 35.3681C61.9667 35.7668 63.185 33.8182 63.8931 32.5261C65.153 30.2262 65.5203 27.0378 65.059 24.2864C63.5096 24.6269 62.7509 26.9831 62.2208 28.3285Z" fill="white"/>
<path d="M58.5072 36.3136C59.1069 38.4894 58.6908 41.4473 57.4762 43.4929C56.1421 42.5405 55.9566 40.4444 55.7677 38.9415C55.519 36.9582 55.4013 34.7611 55.7106 32.7046C57.4174 32.9435 58.1065 34.86 58.5072 36.3136Z" fill="white"/>
<path d="M61.4732 37.245C59.9763 39.1286 58.5952 41.2759 57.4556 43.4788C59.0004 44.5361 60.8139 43.0917 61.9136 42.0695C63.8637 40.2562 65.1308 37.1743 65.431 34.2688C63.8076 34.0297 62.3767 36.1087 61.4732 37.245Z" fill="white"/>
<path d="M55.3597 43.7192C55.2313 46.2518 53.7272 48.9094 51.7248 50.4221C50.757 48.9705 51.3638 46.7465 51.6931 45.1939C52.1372 43.1036 52.7522 40.927 53.6656 38.9957C55.2593 39.9185 55.4447 42.0513 55.3597 43.7192Z" fill="white"/>
<path d="M58.0542 45.8585C55.8844 47.1803 53.721 48.7399 51.7095 50.3995C52.9142 52.1385 55.3219 51.445 56.8142 50.8861C59.4453 49.9011 61.7905 47.3045 63.0151 44.4197C61.4622 43.5428 59.3358 45.0778 58.0542 45.8585Z" fill="white"/>
<path d="M49.1804 49.9065C47.878 52.5118 44.9105 54.2115 42.1154 54.6206C41.8145 52.7266 43.684 50.8512 44.7033 49.6244C46.1532 47.8778 47.6645 46.0653 49.3595 44.5551C50.6293 46.171 49.9574 48.3511 49.1804 49.9065Z" fill="white"/>
<path d="M51.0399 53.2084C48.0796 53.5458 45.0696 54.0315 42.1104 54.5916C42.3929 56.9814 45.8528 57.3671 47.4229 57.5081C50.6438 57.7974 54.2263 56.3785 56.7198 53.9897C55.4817 52.3917 52.6173 53.0288 51.0399 53.2084Z" fill="white"/>
<path d="M45.3387 4.58439C47.3257 5.20593 49.6529 6.38505 50.8016 8.56165C48.7159 8.31237 46.6655 7.49873 44.6603 6.87878C42.4144 6.18428 40.0495 5.66486 37.875 4.70624C40.2566 3.66185 43.0637 3.87293 45.3387 4.58439Z" fill="white"/>
<path d="M34.9124 3.45793L33.8927 0.991333L32.892 3.41203L30.5649 1.83049L32.0603 5.27505H35.7791L37.2204 1.83049L34.9124 3.45793Z" fill="white"/>
<path d="M35.7549 5.81042H32.0303V6.41292H35.7549V5.81042Z" fill="white"/>
<path d="M34.1584 52.4192L34.7587 54.444H36.7008L35.1296 55.6953L35.7296 57.72L34.1584 56.4686L32.5872 57.72L33.1874 55.6953L31.6162 54.444H33.5583L34.1584 52.4192Z" fill="white"/>
</svg>
