<svg width="55" height="55" viewBox="0 0 55 55" fill="none" xmlns="http://www.w3.org/2000/svg">
<path d="M29.7915 12.0312C28.8423 12.0312 28.0728 12.8008 28.0728 13.75C28.0728 14.6992 28.8423 15.4688 29.7915 15.4688H43.5415C44.4907 15.4688 45.2603 14.6992 45.2603 13.75C45.2603 12.8008 44.4907 12.0312 43.5415 12.0312H29.7915Z" fill="white"/>
<path d="M11.4585 25.7812C10.5093 25.7812 9.73975 26.5508 9.73975 27.5C9.73975 28.4492 10.5093 29.2188 11.4585 29.2188H43.5418C44.491 29.2188 45.2606 28.4492 45.2606 27.5C45.2606 26.5508 44.491 25.7812 43.5418 25.7812H11.4585Z" fill="white"/>
<path d="M20.625 39.5312C19.6758 39.5312 18.9062 40.3008 18.9062 41.25C18.9062 42.1992 19.6758 42.9688 20.625 42.9688H43.5417C44.4909 42.9688 45.2604 42.1992 45.2604 41.25C45.2604 40.3008 44.4909 39.5312 43.5417 39.5312H20.625Z" fill="white"/>
</svg>
