<svg width="135" height="57" viewBox="0 0 135 57" fill="none" xmlns="http://www.w3.org/2000/svg">
<path d="M18.5565 8.54545H23.1676V25.1754C23.1676 26.9983 22.7367 28.6017 21.875 29.9854C21.0215 31.3692 19.8201 32.4505 18.2706 33.2294C16.7211 34 14.9106 34.3853 12.8391 34.3853C10.7594 34.3853 8.94472 34 7.39524 33.2294C5.84576 32.4505 4.64429 31.3692 3.79084 29.9854C2.93738 28.6017 2.51065 26.9983 2.51065 25.1754V8.54545H7.1218V24.7901C7.1218 25.8507 7.35381 26.7953 7.81783 27.6239C8.29013 28.4525 8.95301 29.103 9.80646 29.5753C10.6599 30.0393 11.6708 30.2713 12.8391 30.2713C14.0075 30.2713 15.0183 30.0393 15.8718 29.5753C16.7335 29.103 17.3964 28.4525 17.8604 27.6239C18.3245 26.7953 18.5565 25.8507 18.5565 24.7901V8.54545ZM27.9807 34V14.9091H32.3433V18.0909H32.5422C32.8902 16.9889 33.4868 16.1396 34.3319 15.543C35.1854 14.9381 36.159 14.6357 37.2528 14.6357C37.5013 14.6357 37.7789 14.6481 38.0855 14.6729C38.4004 14.6895 38.6614 14.7185 38.8685 14.7599V18.8988C38.6779 18.8325 38.3755 18.7745 37.9612 18.7248C37.5552 18.6668 37.1616 18.6378 36.7805 18.6378C35.9601 18.6378 35.2227 18.8159 34.5681 19.1722C33.9218 19.5202 33.4122 20.005 33.0393 20.6264C32.6665 21.2479 32.48 21.9646 32.48 22.7766V34H27.9807ZM42.0566 34V8.54545H46.5558V18.0661H46.7423C46.9743 17.602 47.3016 17.109 47.7242 16.587C48.1468 16.0567 48.7185 15.6051 49.4394 15.2322C50.1602 14.8511 51.08 14.6605 52.1986 14.6605C53.6735 14.6605 55.0034 15.0375 56.1883 15.7915C57.3815 16.5373 58.3261 17.6435 59.0221 19.1101C59.7264 20.5684 60.0786 22.3582 60.0786 24.4794C60.0786 26.5758 59.7347 28.3572 59.047 29.8239C58.3592 31.2905 57.4229 32.4091 56.238 33.1797C55.0531 33.9503 53.7108 34.3356 52.211 34.3356C51.1173 34.3356 50.21 34.1533 49.4891 33.7887C48.7682 33.4241 48.1882 32.985 47.749 32.4712C47.3182 31.9492 46.9826 31.4562 46.7423 30.9922H46.4813V34H42.0566ZM46.4688 24.4545C46.4688 25.6892 46.6428 26.7705 46.9909 27.6985C47.3472 28.6265 47.8567 29.3516 48.5196 29.8736C49.1908 30.3873 50.0028 30.6442 50.9557 30.6442C51.95 30.6442 52.7828 30.379 53.4539 29.8487C54.1251 29.3101 54.6305 28.5768 54.9703 27.6488C55.3183 26.7125 55.4923 25.6477 55.4923 24.4545C55.4923 23.2696 55.3224 22.2173 54.9827 21.2976C54.643 20.3778 54.1375 19.657 53.4664 19.1349C52.7952 18.6129 51.9583 18.3519 50.9557 18.3519C49.9945 18.3519 49.1784 18.6046 48.5072 19.1101C47.836 19.6155 47.3264 20.324 46.9784 21.2354C46.6387 22.1469 46.4688 23.2199 46.4688 24.4545ZM74.055 34V14.9091H78.4175V18.0909H78.6164C78.9644 16.9889 79.561 16.1396 80.4062 15.543C81.2596 14.9381 82.2332 14.6357 83.327 14.6357C83.5756 14.6357 83.8531 14.6481 84.1597 14.6729C84.4746 14.6895 84.7356 14.7185 84.9427 14.7599V18.8988C84.7522 18.8325 84.4497 18.7745 84.0354 18.7248C83.6294 18.6668 83.2358 18.6378 82.8547 18.6378C82.0344 18.6378 81.2969 18.8159 80.6423 19.1722C79.996 19.5202 79.4864 20.005 79.1135 20.6264C78.7407 21.2479 78.5542 21.9646 78.5542 22.7766V34H74.055ZM87.9319 34V14.9091H92.4312V34H87.9319ZM90.194 12.1996C89.4814 12.1996 88.8682 11.9634 88.3545 11.4911C87.8408 11.0105 87.5839 10.4347 87.5839 9.76349C87.5839 9.08404 87.8408 8.50817 88.3545 8.03586C88.8682 7.55528 89.4814 7.31499 90.194 7.31499C90.9149 7.31499 91.528 7.55528 92.0335 8.03586C92.5472 8.50817 92.8041 9.08404 92.8041 9.76349C92.8041 10.4347 92.5472 11.0105 92.0335 11.4911C91.528 11.9634 90.9149 12.1996 90.194 12.1996ZM112.147 19.9553L108.045 20.4027C107.929 19.9884 107.726 19.599 107.436 19.2344C107.154 18.8698 106.773 18.5756 106.293 18.3519C105.812 18.1282 105.224 18.0163 104.528 18.0163C103.591 18.0163 102.804 18.2193 102.166 18.6254C101.536 19.0314 101.226 19.5575 101.234 20.2038C101.226 20.759 101.429 21.2106 101.843 21.5586C102.266 21.9066 102.962 22.1925 103.931 22.4162L107.188 23.1122C108.994 23.5017 110.336 24.119 111.214 24.9641C112.101 25.8093 112.549 26.9155 112.557 28.2827C112.549 29.4841 112.196 30.5447 111.5 31.4645C110.813 32.3759 109.856 33.0885 108.629 33.6023C107.403 34.116 105.994 34.3729 104.403 34.3729C102.067 34.3729 100.186 33.884 98.7607 32.9062C97.3355 31.9202 96.4862 30.5489 96.2127 28.7923L100.6 28.3697C100.799 29.2314 101.222 29.8819 101.868 30.321C102.514 30.7602 103.355 30.9798 104.391 30.9798C105.46 30.9798 106.317 30.7602 106.964 30.321C107.618 29.8819 107.946 29.3391 107.946 28.6928C107.946 28.146 107.734 27.6944 107.312 27.3381C106.897 26.9818 106.251 26.7083 105.373 26.5178L102.116 25.8342C100.285 25.453 98.9305 24.8108 98.0522 23.9077C97.1739 22.9962 96.7389 21.8445 96.7472 20.4524C96.7389 19.2758 97.0579 18.2566 97.7042 17.3949C98.3588 16.5249 99.2661 15.8537 100.426 15.3814C101.594 14.9008 102.941 14.6605 104.466 14.6605C106.703 14.6605 108.464 15.137 109.748 16.0898C111.04 17.0427 111.84 18.3312 112.147 19.9553ZM124.719 34.3729C122.805 34.3729 121.151 33.9751 119.759 33.1797C118.376 32.3759 117.311 31.2408 116.565 29.7741C115.819 28.2992 115.447 26.5633 115.447 24.5664C115.447 22.6026 115.819 20.8791 116.565 19.396C117.319 17.9045 118.372 16.7444 119.722 15.9158C121.073 15.079 122.66 14.6605 124.482 14.6605C125.659 14.6605 126.769 14.8511 127.813 15.2322C128.866 15.6051 129.794 16.1851 130.597 16.9723C131.41 17.7595 132.048 18.7621 132.512 19.9801C132.976 21.1899 133.208 22.6316 133.208 24.3054V25.685H117.559V22.6523H128.895C128.886 21.7906 128.7 21.0241 128.335 20.353C127.971 19.6735 127.461 19.1391 126.807 18.7496C126.16 18.3602 125.406 18.1655 124.545 18.1655C123.625 18.1655 122.817 18.3892 122.121 18.8366C121.425 19.2758 120.882 19.8558 120.493 20.5767C120.112 21.2893 119.917 22.0723 119.909 22.9258V25.5732C119.909 26.6835 120.112 27.6364 120.518 28.4318C120.924 29.219 121.491 29.8239 122.22 30.2464C122.95 30.6607 123.803 30.8679 124.781 30.8679C125.435 30.8679 126.028 30.7768 126.558 30.5945C127.088 30.4039 127.548 30.1263 127.938 29.7617C128.327 29.3971 128.621 28.9455 128.82 28.407L133.021 28.8793C132.756 29.9896 132.251 30.959 131.505 31.7876C130.767 32.608 129.823 33.246 128.671 33.7017C127.519 34.1491 126.202 34.3729 124.719 34.3729Z" fill="white"/>
<path d="M66.6752 34.2734C65.9212 34.2734 65.2749 34.0083 64.7363 33.478C64.1977 32.9477 63.9326 32.3014 63.9409 31.5391C63.9326 30.7933 64.1977 30.1553 64.7363 29.625C65.2749 29.0947 65.9212 28.8295 66.6752 28.8295C67.4044 28.8295 68.0383 29.0947 68.5769 29.625C69.1238 30.1553 69.4013 30.7933 69.4096 31.5391C69.4013 32.0445 69.2688 32.5044 69.0119 32.9187C68.7633 33.333 68.4319 33.6644 68.0176 33.913C67.6116 34.1533 67.1641 34.2734 66.6752 34.2734Z" fill="#FFBB01"/>
<path d="M1.95881 54V45.2727H3.27557V52.8665H7.23011V54H1.95881ZM14.609 45.2727V54H13.2922V45.2727H14.609ZM21.8494 45.2727L24.2784 52.3807H24.3764L26.8054 45.2727H28.2287L25.088 54H23.5667L20.4261 45.2727H21.8494ZM34.049 54V45.2727H39.5206V46.4062H35.3657V49.0653H39.235V50.1946H35.3657V52.8665H39.5717V54H34.049ZM53.5752 54V45.2727H59.0468V46.4062H54.892V49.0653H58.7613V50.1946H54.892V52.8665H59.0979V54H53.5752ZM66.1285 45.2727L68.5574 52.3807H68.6555L71.0844 45.2727H72.5077L69.3671 54H67.8458L64.7052 45.2727H66.1285ZM85.4754 49.6364C85.4754 50.5682 85.3049 51.3693 84.964 52.0398C84.6231 52.7074 84.1558 53.2216 83.562 53.5824C82.9711 53.9403 82.2993 54.1193 81.5464 54.1193C80.7907 54.1193 80.116 53.9403 79.5223 53.5824C78.9314 53.2216 78.4655 52.706 78.1245 52.0355C77.7836 51.3651 77.6132 50.5653 77.6132 49.6364C77.6132 48.7045 77.7836 47.9048 78.1245 47.2372C78.4655 46.5668 78.9314 46.0526 79.5223 45.6946C80.116 45.3338 80.7907 45.1534 81.5464 45.1534C82.2993 45.1534 82.9711 45.3338 83.562 45.6946C84.1558 46.0526 84.6231 46.5668 84.964 47.2372C85.3049 47.9048 85.4754 48.7045 85.4754 49.6364ZM84.1714 49.6364C84.1714 48.9261 84.0564 48.3281 83.8262 47.8423C83.599 47.3537 83.2865 46.9844 82.8887 46.7344C82.4939 46.4815 82.0464 46.3551 81.5464 46.3551C81.0436 46.3551 80.5947 46.4815 80.1998 46.7344C79.8049 46.9844 79.4924 47.3537 79.2623 47.8423C79.0351 48.3281 78.9214 48.9261 78.9214 49.6364C78.9214 50.3466 79.0351 50.946 79.2623 51.4347C79.4924 51.9205 79.8049 52.2898 80.1998 52.5426C80.5947 52.7926 81.0436 52.9176 81.5464 52.9176C82.0464 52.9176 82.4939 52.7926 82.8887 52.5426C83.2865 52.2898 83.599 51.9205 83.8262 51.4347C84.0564 50.946 84.1714 50.3466 84.1714 49.6364ZM91.6771 54V45.2727H92.9938V52.8665H96.9484V54H91.6771ZM102.918 45.2727L105.347 52.3807H105.445L107.874 45.2727H109.297L106.156 54H104.635L101.495 45.2727H102.918ZM115.117 54V45.2727H120.589V46.4062H116.434V49.0653H120.303V50.1946H116.434V52.8665H120.64V54H115.117ZM129.733 54H126.908V45.2727H129.823C130.678 45.2727 131.412 45.4474 132.026 45.7969C132.639 46.1435 133.11 46.642 133.436 47.2926C133.766 47.9403 133.931 48.7173 133.931 49.6236C133.931 50.5327 133.764 51.3139 133.432 51.9673C133.102 52.6207 132.625 53.1236 132 53.4759C131.375 53.8253 130.62 54 129.733 54ZM128.225 52.8494H129.661C130.325 52.8494 130.878 52.7244 131.318 52.4744C131.759 52.2216 132.088 51.8565 132.307 51.3793C132.526 50.8991 132.635 50.3139 132.635 49.6236C132.635 48.9389 132.526 48.358 132.307 47.8807C132.091 47.4034 131.769 47.0412 131.34 46.794C130.911 46.5469 130.378 46.4233 129.742 46.4233H128.225V52.8494Z" fill="#9D9D9D"/>
</svg>
