<svg width="40" height="40" viewBox="0 0 40 40" fill="none" xmlns="http://www.w3.org/2000/svg">
<g clip-path="url(#clip0_129_154)">
<path d="M20 40C31.0457 40 40 31.0457 40 20C40 8.9543 31.0457 0 20 0C8.9543 0 0 8.9543 0 20C0 31.0457 8.9543 40 20 40Z" fill="#FFBB01"/>
<path d="M23.143 39.7383C23.2282 39.7286 23.3133 39.7184 23.3984 39.7076C24.0555 39.594 24.7066 39.4477 25.3492 39.2691C25.992 39.0917 26.6257 38.8822 27.2476 38.6414C27.8685 38.3996 28.477 38.127 29.0707 37.8245C29.6649 37.5218 30.2435 37.1896 30.8045 36.8291C31.3656 36.4693 31.9083 36.0816 32.4307 35.6676C32.9534 35.2529 33.4551 34.8124 33.9338 34.3476C34.4122 33.8829 34.8672 33.3946 35.2968 32.8845C35.7262 32.3742 36.1298 31.8428 36.5061 31.2922C36.883 30.7418 37.2322 30.1729 37.5522 29.5876C37.8723 29.0025 38.1629 28.4017 38.423 27.7876C38.6482 27.2459 38.8494 26.6946 39.0261 26.1353L30.5799 17.6891C30.4492 17.643 30.3384 17.5968 30.1384 17.5476C29.5353 17.3999 28.6922 17.2676 27.8245 17.146L27.1784 17.0537L20.063 9.93988C19.9784 10.0476 19.8984 10.1414 19.7892 10.3153C19.4615 10.8414 19.0753 11.6014 18.6922 12.386C18.3107 13.1706 17.9292 13.9814 17.5845 14.6506C17.4306 14.9546 17.2638 15.2517 17.0845 15.5414C16.9245 15.7953 16.8107 15.9999 16.5168 16.2076C16.2245 16.4168 15.9907 16.4599 15.6968 16.5306C15.4045 16.5968 15.0661 16.6553 14.6938 16.7091C13.9461 16.8183 13.0522 16.9153 12.1845 17.0214C11.3153 17.1291 10.4692 17.2476 9.86454 17.386C9.66454 17.4322 9.55223 17.4768 9.41992 17.5214C9.49684 17.6368 9.56146 17.7399 9.69377 17.8968C9.93992 18.1876 10.263 18.5276 10.6215 18.8845L13.963 22.226C14.0984 22.3937 14.2199 22.5583 14.3015 22.8214C14.4107 23.163 14.3815 23.3968 14.3568 23.6953C14.3251 24.033 14.2789 24.3692 14.2184 24.703C14.0907 25.4445 13.9045 26.3214 13.7384 27.1783C13.5791 27.9434 13.4559 28.7155 13.3692 29.4922C13.3507 29.6968 13.3568 29.8153 13.3599 29.9537L23.143 39.7383Z" fill="#DF950B"/>
<path d="M20.0602 9.93427C20.1423 10.0448 20.2212 10.139 20.3263 10.3153C20.6467 10.8457 21.0213 11.6122 21.391 12.4026C21.7607 13.1945 22.1271 14.0117 22.4622 14.6885C22.6298 15.0247 22.7875 15.3265 22.9453 15.5835C23.1014 15.8405 23.2147 16.0467 23.5039 16.2603C23.7931 16.474 24.0247 16.5203 24.3172 16.595C24.6096 16.6682 24.9448 16.7295 25.3178 16.7907C26.0637 16.9117 26.9558 17.0224 27.8217 17.1419C28.6892 17.2629 29.5321 17.3959 30.135 17.5423C30.3355 17.5916 30.4472 17.6379 30.5786 17.6842C30.4981 17.7978 30.4324 17.9008 30.2993 18.0547C29.8902 18.5224 29.2758 19.1155 28.635 19.7087C27.9942 20.3049 27.3288 20.9055 26.7882 21.4314C26.5172 21.6944 26.2789 21.9394 26.0818 22.1665C25.8862 22.3936 25.7236 22.5655 25.6102 22.9061C25.4952 23.2453 25.5231 23.4798 25.5429 23.7801C25.5626 24.0789 25.6069 24.4166 25.6644 24.7902C25.7795 25.5342 25.9503 26.4142 26.1031 27.2734C26.2559 28.1325 26.3906 28.9737 26.4367 29.5922C26.4514 29.7954 26.4416 29.9165 26.4367 30.0555C26.3052 30.0151 26.1853 29.9836 25.9963 29.9045C25.4262 29.6624 24.6704 29.262 23.9064 28.8391C23.1408 28.4148 22.362 27.9697 21.6917 27.6186C21.393 27.4588 21.0865 27.3112 20.7732 27.1763C20.4956 27.0613 20.282 26.9597 19.9222 26.9567C19.5623 26.9567 19.3471 27.0523 19.0678 27.1628C18.7885 27.2749 18.4796 27.4213 18.1428 27.5902C17.4692 27.9293 16.6805 28.3641 15.9083 28.7749C15.1361 29.1858 14.377 29.5729 13.802 29.806C13.6114 29.8837 13.4931 29.9119 13.3584 29.9508C13.3567 29.8118 13.3485 29.6909 13.3666 29.4877C13.4224 28.8706 13.5703 28.031 13.7379 27.1749C13.9038 26.3187 14.0895 25.4415 14.216 24.699C14.2764 24.3646 14.3225 24.0282 14.354 23.6906C14.3787 23.3917 14.4099 23.1571 14.3015 22.8149C14.193 22.4728 14.0336 22.2995 13.8414 22.068C13.6214 21.8106 13.3895 21.5619 13.1464 21.3224C12.6157 20.7875 11.9585 20.1764 11.3276 19.5713C10.7543 19.0344 10.2088 18.4735 9.69284 17.8904C9.55975 17.7335 9.49568 17.6305 9.41846 17.5154C9.5499 17.4706 9.66326 17.4258 9.86206 17.3795C10.4683 17.2405 11.3145 17.1224 12.1836 17.0163C13.0511 16.9102 13.9449 16.8147 14.6925 16.7056C15.0671 16.6518 15.4039 16.5935 15.6964 16.5248C15.9888 16.4561 16.2221 16.4128 16.5146 16.2036C16.807 15.9944 16.9253 15.7897 17.0847 15.5357C17.2457 15.2817 17.4084 14.9829 17.5809 14.6482C17.9259 13.9774 18.3071 13.1661 18.6899 12.3802C19.0219 11.676 19.3881 10.9855 19.7874 10.3108C19.8959 10.136 19.9747 10.0433 20.0602 9.93427Z" fill="white"/>
</g>
<defs>
<clipPath id="clip0_129_154">
<rect width="40" height="40" fill="white"/>
</clipPath>
</defs>
</svg>
